<?xml version="1.0" encoding="UTF-8" standalone="no"?>
<svg
   width="109.65714mm"
   height="102.39836mm"
   viewBox="0 0 109.65714 102.39836"
   version="1.1"
   id="svg1"
   xml:space="preserve"
   xmlns="http://www.w3.org/2000/svg"
   xmlns:svg="http://www.w3.org/2000/svg"><defs
   id="defs1" /><g
   style="display:inline;stroke-width:0.5;stroke-dasharray:none"
   id="g11"><path
     style="display:inline;fill:#a9484c;fill-opacity:1;stroke:#000000;stroke-width:0.499999;stroke-dasharray:none;stroke-opacity:1"
     d="m 36.412071,13.998669 c 0,0 -9.631424,-13.962149 -27.378345,1.81687 0,0 -2.397977,2.266373 -5.696403,-2.940148 0,0 -0.07713,13.398198 9.864821,11.997583 0,0 5.993649,-2.474907 5.96161,2.882316 -0.03204,5.357222 -0.01899,5.378186 -0.01899,5.378186 z"
     id="path1" /><path
     style="display:inline;fill:#a9484c;fill-opacity:1;stroke:#000000;stroke-width:0.499999;stroke-dasharray:none;stroke-opacity:1"
     d="m 73.412492,14.45209 c 0,0 9.631424,-13.962149 27.378358,1.81687 0,0 2.39797,2.266373 5.6964,-2.940148 0,0 0.0771,13.398198 -9.864825,11.997583 0,0 -5.99365,-2.474907 -5.96161,2.882316 0.032,5.357222 0.019,5.378186 0.019,5.378186 z"
     id="path2" /><path
     style="display:inline;fill:#ffffff;fill-opacity:1;stroke:#000000;stroke-width:0.499914;stroke-dasharray:none;stroke-opacity:1"
     d="m 36.746598,13.504534 -9.293931,4.614266 3.578178,-0.631843 -9.619869,7.133725 -5.779833,5.79887 -9.119098,7.138469 5.683317,-3.080922 -5.740277,4.789031 6.143742,-3.730953 -9.108813,7.258671 4.646175,-1.356998 -5.143782,3.053245 6.032987,-1.704946 -7.954588,6.493184 8.366756,-3.496876 -9.085081,7.005616 6.154818,-1.267639 -3.647799,6.739912 0.582256,10.008248 2.310825,-10.133193 1.728572,19.142676 0.940626,-7.62797 3.99984,7.931634 0.84965,7.797986 3.476917,6.595194 -2.042638,-8.635432 4.370868,8.962822 2.385983,-4.00931 2.654956,3.58624 2.483288,-2.75037 3.652544,3.0825 3.959493,-1.76109 8.996476,3.39091 -2.436609,-3.30946 8.209322,4.75028 -1.460385,-2.09323 7.261578,2.16994 12.249513,-4.18329 -6.587556,4.14137 13.608637,-3.95316 -1.20565,1.7089 4.086071,-2.4902 -0.38685,2.15253 3.335308,-2.72823 0.749971,2.83103 4.529883,-4.47034 1.127327,3.53959 4.071829,-3.58941 1.20803,4.49565 3.39464,-4.56444 -0.62972,3.94525 3.97927,-10.869418 2.123325,3.118088 -0.510255,-7.051481 4.417535,-12.752295 -0.8892,9.755196 2.58297,-11.643605 3.57659,6.546169 -4.48321,-17.64729 4.3859,0.89201 c 0,0 -9.829505,-8.334935 -8.95059,-8.004383 0.87892,0.330548 6.88501,0.999558 6.88501,0.999558 l -8.835075,-5.804406 5.885035,0.990862 -14.914745,-15.539831 3.49748,1.110269 -11.863443,-7.268157 3.521219,0.48159 -11.393534,-7.146378 4.042562,0.284684 L 66.727998,8.983583 70.862326,9.182071 61.604783,4.3709 58.389723,0.498396 54.480859,4.034814 55.156466,1.869628 49.233442,6.077427 50.549847,4.133662 42.786704,8.382582 36.137446,11.498298 40.622235,10.751 Z"
     id="path3" /><path
     d="m 29.671396,74.432633 c 0,-18.663962 0,-12.988371 25.766702,-12.988371 25.766703,0 25.766703,-5.675591 25.766703,12.879225 0,18.663963 -11.487655,27.941373 -25.766703,27.941373 C 41.159051,102.374 29.671396,92.98745 29.671396,74.432633"
     fill="#ff717f"
     style="display:inline;stroke:#000000;stroke-width:0.54125;stroke-dasharray:none;stroke-opacity:1"
     id="path4" /><path
     fill="#e2596c"
     d="M 57.048517,61.444262 55.438098,93.424034 53.827679,61.444262 Z"
     style="display:inline;stroke-width:0.54125;stroke-dasharray:none"
     id="path5" /><path
     style="display:inline;fill:#ffffff;fill-opacity:1;stroke:#000000;stroke-width:0.499999;stroke-dasharray:none;stroke-opacity:1"
     d="m 22.4735,55.806807 c -6.562657,7.048201 -6.321005,6.122985 -6.321005,6.122985 l 6.673416,-1.511446 -5.153019,4.631674 7.190285,0.08614 -2.765582,2.738731 8.013695,-0.636576 -2.849488,3.431243 11.166363,-2.907662 -3.778059,3.342862 11.968517,-3.00164 -1.674786,1.684856 10.953797,-4.373242 7.547171,5.175396 -1.352584,-3.008353 12.356726,2.095442 -3.916785,-3.26119 12.941839,3.811621 -5.954051,-3.951467 9.755606,2.707402 -3.84071,-4.475046 7.768679,2.16816 -9.408787,-10.638309 z"
     id="path6" /><ellipse
     style="display:inline;fill:#ffffff;fill-opacity:1;stroke:none;stroke-width:0.528489;stroke-dasharray:none;stroke-opacity:1"
     cx="56.804375"
     cy="48.353512"
     rx="41.593456"
     ry="16.7558"
     id="ellipse6" /><circle
     style="display:inline;fill:#000000;fill-opacity:1;stroke:none;stroke-width:0.53854;stroke-dasharray:none;stroke-opacity:1"
     cx="37"
     cy="37"
     r="10"
     id="circle6" /><circle
     style="display:inline;fill:#f2f2f2;fill-opacity:1;stroke:none;stroke-width:0.844649;stroke-dasharray:none;stroke-opacity:1"
     cx="40"
     cy="34"
     r="3"
     id="circle7" /><circle
     style="fill:#f2f2f2;stroke:#000000;stroke-width:0.889035"
     cx="34"
     cy="42"
     r="1.5"
     id="circle8" /><circle
     style="display:inline;fill:#000000;fill-opacity:1;stroke:none;stroke-width:0.53854;stroke-dasharray:none;stroke-opacity:1"
     cx="76.608749"
     cy="37"
     r="10"
     id="circle9" /><circle
     style="display:inline;fill:#f2f2f2;fill-opacity:1;stroke:none;stroke-width:0.844649;stroke-dasharray:none;stroke-opacity:1"
     cx="79.608749"
     cy="34"
     r="3"
     id="circle10" /><circle
     style="fill:#f2f2f2;stroke:#000000;stroke-width:0.889035"
     cx="73.608749"
     cy="42"
     r="1.5"
     id="circle11" /></g>
<animateTransform
   attributeName="transform"
   begin="0s"
   dur="10s"
   type="rotate"
   from="0 0 0 "
   to="360 0 0"
   repeatCount="indefinite" />
       </svg>
